<svg width="256" height="256" viewBox="0 0 256 256" xmlns="http://www.w3.org/2000/svg">
  <defs>
    <linearGradient id="iconBG" x1="0" y1="0" x2="1" y2="1">
      <stop offset="0%" stop-color="#FFFFFF"/>
      <stop offset="100%" stop-color="#F6FAFF"/>
    </linearGradient>
    <linearGradient id="iconRing" x1="0" y1="0" x2="1" y2="1">
      <stop offset="0%" stop-color="#E3E9F5"/>
      <stop offset="100%" stop-color="#CBD9FF"/>
    </linearGradient>
  </defs>
  <rect x="16" y="16" width="224" height="224" rx="60" fill="url(#iconBG)" stroke="url(#iconRing)" stroke-width="8"/>
  <g fill-rule="evenodd" clip-rule="evenodd">
    <path d="M128 52L158 120L128 150L98 120L128 52Z" fill="#4285F4"/>
    <path d="M204 128L136 158L106 128L136 98L204 128Z" fill="#34A853"/>
    <path d="M128 204L98 136L128 106L158 136L128 204Z" fill="#FBBC05"/>
    <path d="M52 128L120 98L150 128L120 158L52 128Z" fill="#EA4335"/>
    <circle cx="128" cy="128" r="34" fill="white" opacity="0.95"/>
    <path d="M128 104L112 132H144L128 104Z" fill="#1A73E8" opacity="0.85"/>
  </g>
</svg>

